<?xml version="1.0" encoding="UTF-8" standalone="no"?>
<!-- Created with Inkscape (http://www.inkscape.org/) -->

<svg
   width="18.462543mm"
   height="8.516851mm"
   viewBox="0 0 16.616289 132.76803"
   version="1.1"
   id="svg31260"
   inkscape:version="1.1.1 (3bf5ae0d25, 2021-09-20)"
   sodipodi:docname="blixt.svg"
   xmlns:inkscape="http://www.inkscape.org/namespaces/inkscape"
   xmlns:sodipodi="http://sodipodi.sourceforge.net/DTD/sodipodi-0.dtd"
   xmlns="http://www.w3.org/2000/svg"
   xmlns:svg="http://www.w3.org/2000/svg">
  <sodipodi:namedview
     id="namedview31262"
     pagecolor="#ffffff"
     bordercolor="#666666"
     borderopacity="1.0"
     inkscape:pageshadow="2"
     inkscape:pageopacity="0.0"
     inkscape:pagecheckerboard="false"
     inkscape:document-units="mm"
     showgrid="false"
     inkscape:zoom="8.1840269"
     inkscape:cx="39.772597"
     inkscape:cy="17.961818"
     inkscape:window-width="1920"
     inkscape:window-height="1046"
     inkscape:window-x="-11"
     inkscape:window-y="315"
     inkscape:window-maximized="1"
     inkscape:current-layer="layer1"
     inkscape:snap-bbox="true"
     inkscape:bbox-paths="true"
     inkscape:bbox-nodes="true"
     inkscape:snap-bbox-edge-midpoints="true"
     inkscape:snap-bbox-midpoints="true"
     inkscape:object-paths="true"
     inkscape:snap-intersection-paths="true"
     inkscape:snap-smooth-nodes="true"
     inkscape:snap-midpoints="true"
     inkscape:snap-object-midpoints="true"
     inkscape:snap-center="true"
     fit-margin-top="0"
     fit-margin-left="0"
     fit-margin-right="0"
     fit-margin-bottom="0"
     showborder="true"
     inkscape:showpageshadow="true"
     borderlayer="false"
     showguides="true" />
  <defs
     id="defs31257" />
  <g
     inkscape:label="Lager 1"
     inkscape:groupmode="layer"
     id="layer1"
     transform="translate(-9.8780481,-189.39046)">
    <path
       id="path31333-5"
       style="fill:#ed217c;stroke-width:0.195815"
       d="m -80.200783,321.86624 c 0.199859,-0.50821 0.696624,-1.96288 3.39593,-9.94434 1.233203,-3.64641 2.415414,-7.11232 2.627127,-7.70202 0.211715,-0.58972 1.810795,-5.28408 3.553506,-10.43193 1.742711,-5.14786 3.842176,-11.33398 4.665477,-13.74696 5.873156,-17.21346 7.225573,-21.27589 7.231224,-21.72147 0.0035,-0.27805 -0.232414,-0.7732 -0.524594,-1.10088 l -0.530971,-0.5955 -7.309171,-0.14339 -7.309169,-0.14339 -1.05436,0.003 c -1.042369,0.003 -0.595261,0.0381 0.541142,-4.31704 0.5584,-1.64179 1.338039,-3.96892 5.814595,-17.35575 0.968356,-2.89582 2.52742,-7.54661 3.464592,-10.33512 0.937161,-2.78852 2.021895,-6.03536 2.410506,-7.21521 1.091953,-3.31522 5.912023,-17.71285 7.279131,-21.74291 0.718461,-2.11788 1.402202,-3.79744 1.655969,-4.06774 0.945343,-1.0069 0.707571,-0.99413 15.068763,-0.80858 l 13.369607,0.17254 4.055688,0.0985 c 0,0 -0.239285,0.52182 -0.68533,1.41607 -0.624217,1.25148 -1.030753,2.07823 -2.54156,4.75619 -2.548806,4.5178 -9.283596,16.2328 -9.444244,16.42799 -0.08775,0.10659 -0.650943,1.06882 -1.251572,2.13828 -1.256846,2.23784 -2.425214,4.29034 -5.921205,10.4019 -1.376276,2.40595 -3.219471,5.64318 -4.095972,7.19382 -0.876492,1.55065 -1.897726,3.32692 -2.269372,3.9473 -0.371655,0.62039 -0.676234,1.1673 -0.676843,1.21538 -6.56e-4,0.0481 3.2559,0.1287 7.236678,0.17917 l 7.237779,0.0918 0.659917,0.5944 c 0.782645,0.70492 0.993313,1.54949 0.608395,2.43887 -0.15219,0.35162 -2.435571,4.30747 -5.074178,8.79075 -2.638608,4.4833 -4.896234,8.32378 -5.016944,8.53441 -0.120709,0.21062 -0.709709,1.21392 -1.308905,2.22954 -0.599195,1.01564 -1.276693,2.17293 -1.505569,2.5718 -0.546263,0.95196 -9.515534,16.23189 -13.095601,22.30948 -1.542905,2.61927 -3.723977,6.33688 -4.846839,8.26139 -1.12285,1.92448 -4.047286,6.91049 -6.498738,11.07999 -2.451463,4.16948 -5.633043,9.59285 -7.070178,12.05188 -2.475056,4.23501 -3.202725,5.37783 -2.844941,4.46805 z m 67.769745,-0.17527 c 0.199859,-0.5082 0.696624,-1.96287 3.3959305,-9.94434 1.2332032,-3.64641 2.4154136,-7.11232 2.6271276,-7.70203 0.2117142,-0.5897 1.8107939,-5.28408 3.5535052,-10.43193 1.7427114,-5.14785 3.84217583,-11.33398 4.6654759,-13.74695 5.8731566,-17.21346 7.2255742,-21.27588 7.2312242,-21.72147 0.00352,-0.27806 -0.232415,-0.7732 -0.5245938,-1.10088 l -0.530972,-0.5955 -7.30916825,-0.1434 -7.30916955,-0.14338 -1.0543599,0.003 c -1.0423696,0.003 -0.595262,0.0381 0.5411406,-4.31703 0.5584017,-1.64181 1.3380409,-3.96893 5.8145963,-17.35575 0.96835479,-2.89583 2.527419,-7.54663 3.4645897,-10.33513 0.9371617,-2.78851 2.0218966,-6.03537 2.4105075,-7.21521 1.0919525,-3.31523 5.912022,-17.71285 7.279131,-21.7429 0.718461,-2.1179 1.402201,-3.79745 1.655969,-4.06775 0.945343,-1.0069 0.707572,-0.99414 15.068753,-0.80857 l 13.369607,0.17253 4.055688,0.0985 c 0,0 -0.239285,0.52182 -0.68533,1.41606 -0.624218,1.25148 -1.030753,2.07825 -2.541558,4.75619 -2.548808,4.51782 -9.283598,16.2328 -9.444245,16.42799 -0.08776,0.1066 -0.650945,1.06883 -1.251573,2.13829 -1.256845,2.23784 -2.425213,4.29034 -5.921205,10.4019 -1.376277,2.40595 -3.219471,5.64317 -4.095972,7.19382 -0.876491,1.55064 -1.897725,3.32693 -2.269371,3.9473 -0.371657,0.62039 -0.676236,1.16731 -0.676845,1.21538 -6.56e-4,0.0481 3.2559,0.1287 7.23668,0.17917 l 7.237778,0.0918 0.659917,0.5944 c 0.782645,0.70493 0.993313,1.54949 0.608396,2.43886 -0.152191,0.35162 -2.435572,4.30748 -5.074179,8.79076 -2.638608,4.4833 -4.896234,8.32377 -5.016943,8.53441 -0.120711,0.21063 -0.709709,1.21393 -1.308906,2.22954 -0.599195,1.01563 -1.276693,2.17293 -1.505569,2.5718 -0.546264,0.95196 -9.515524,16.23189 -13.0955918,22.30948 -1.5429046,2.61927 -3.7239767,6.33688 -4.8468381,8.26139 -1.1228513,1.92447 -4.0472845,6.91049 -6.4987379,11.07998 -2.4514632,4.16949 -5.6330437,9.59286 -7.0701779,12.0519 -2.4750553,4.235 -3.2027243,5.37783 -2.8449403,4.46804 z m 69.574164,-0.83375 c 0.19986,-0.50821 0.696624,-1.96288 3.39593,-9.94434 1.233203,-3.64641 2.415413,-7.11233 2.627128,-7.70203 0.211714,-0.58971 1.810794,-5.28408 3.553505,-10.43193 1.742711,-5.14784 3.842176,-11.33398 4.665477,-13.74695 5.873156,-17.21346 7.225574,-21.27589 7.231224,-21.72147 0.0035,-0.27807 -0.232415,-0.77321 -0.524593,-1.10088 l -0.530973,-0.59551 -7.309169,-0.1434 -7.309169,-0.14337 -1.05436,0.003 c -1.04237,0.003 -0.595262,0.0381 0.54114,-4.31703 0.558402,-1.6418 1.338041,-3.96892 5.814596,-17.35575 0.968355,-2.89581 2.52742,-7.54662 3.464591,-10.33513 0.937161,-2.7885 2.021896,-6.03535 2.410508,-7.2152 1.091952,-3.31523 5.912022,-17.71285 7.279129,-21.74291 0.718462,-2.11788 1.402203,-3.79745 1.65597,-4.06774 0.945342,-1.00689 0.707572,-0.99415 15.068765,-0.80857 l 13.369605,0.17252 4.05569,0.0985 c 0,0 -0.23929,0.52183 -0.68532,1.41607 -0.62422,1.25147 -1.03075,2.07824 -2.54156,4.75619 -2.54881,4.51781 -9.28361,16.23281 -9.44425,16.42799 -0.0877,0.10659 -0.65094,1.06882 -1.25157,2.13828 -1.25684,2.23784 -2.425223,4.29034 -5.921212,10.4019 -1.376277,2.40595 -3.219471,5.64318 -4.095972,7.19383 -0.876492,1.55064 -1.897726,3.32692 -2.269371,3.9473 -0.371657,0.62039 -0.676236,1.1673 -0.676846,1.21538 -6.56e-4,0.0481 3.2559,0.12869 7.236682,0.17917 l 7.237779,0.0918 0.65992,0.59441 c 0.78265,0.70492 0.99332,1.54948 0.60839,2.43886 -0.15219,0.35161 -2.43557,4.30747 -5.074179,8.79076 -2.638606,4.48329 -4.896233,8.32376 -5.016944,8.5344 -0.12071,0.21063 -0.709708,1.21394 -1.308904,2.22955 -0.599195,1.01562 -1.276694,2.17293 -1.505569,2.5718 -0.546265,0.95195 -9.515534,16.23189 -13.095602,22.30947 -1.542904,2.61927 -3.723976,6.33689 -4.846838,8.2614 -1.122852,1.92447 -4.047286,6.91048 -6.498739,11.07998 -2.451463,4.16949 -5.633044,9.59286 -7.070178,12.05189 -2.475057,4.235 -3.202725,5.37783 -2.844941,4.46804 z" />
  </g>
</svg>
