<?xml version="1.0" encoding="UTF-8" standalone="no"?>
<!-- Created with Inkscape (http://www.inkscape.org/) -->

<svg
   width="20mm"
   height="28mm"
   viewBox="0 0 210 297"
   version="1.1"
   id="svg31260"
   inkscape:version="1.1 (c68e22c387, 2021-05-23)"
   sodipodi:docname="blixt.svg"
   xmlns:inkscape="http://www.inkscape.org/namespaces/inkscape"
   xmlns:sodipodi="http://sodipodi.sourceforge.net/DTD/sodipodi-0.dtd"
   xmlns="http://www.w3.org/2000/svg"
   xmlns:svg="http://www.w3.org/2000/svg">
  <sodipodi:namedview
     id="namedview31262"
     pagecolor="#ffffff"
     bordercolor="#666666"
     borderopacity="1.0"
     inkscape:pageshadow="2"
     inkscape:pageopacity="0.0"
     inkscape:pagecheckerboard="0"
     inkscape:document-units="mm"
     showgrid="false"
     inkscape:zoom="0.51150168"
     inkscape:cx="67.448459"
     inkscape:cy="202.34538"
     inkscape:window-width="1920"
     inkscape:window-height="1001"
     inkscape:window-x="-9"
     inkscape:window-y="-9"
     inkscape:window-maximized="1"
     inkscape:current-layer="layer1"
     inkscape:snap-bbox="true"
     inkscape:bbox-paths="true"
     inkscape:bbox-nodes="true"
     inkscape:snap-bbox-edge-midpoints="true"
     inkscape:snap-bbox-midpoints="true"
     inkscape:object-paths="true"
     inkscape:snap-intersection-paths="true"
     inkscape:snap-smooth-nodes="true"
     inkscape:snap-midpoints="true"
     inkscape:snap-object-midpoints="true"
     inkscape:snap-center="true"
     fit-margin-top="0"
     fit-margin-left="0"
     fit-margin-right="0"
     fit-margin-bottom="0" />
  <defs
     id="defs31257" />
  <g
     inkscape:label="Lager 1"
     inkscape:groupmode="layer"
     id="layer1"
     transform="translate(-8.8330219,-84.792201)">
    <path
       id="path31333-5"
       style="fill:#ed217c;stroke-width:0.195815"
       d="m 8.9154798,219.42165 c 0.1934,-0.5107 0.67168,-1.97155 3.2695702,-9.9866 1.18687,-3.66176 2.32504,-7.14238 2.52926,-7.73472 0.20422,-0.59235 1.74365,-5.30661 3.42095,-10.47615 1.6773,-5.16953 3.69816,-11.38178 4.4908,-13.805 5.65443,-17.28654 6.95523,-21.36579 6.95523,-21.81141 0,-0.27808 -0.2422,-0.7702 -0.53851,-1.09414 l -0.53848,-0.58873 -7.3104,-0.0507 -7.3104,-0.0507 -1.05424,0.0161 c -1.04225,0.0159 -0.59473,0.0457 0.48636,-4.32355 0.53754,-1.64875 1.28761,-3.98557 5.59407,-17.42808 0.93156,-2.90786 2.43153,-7.57806 3.33327,-10.37823 0.90173,-2.80016 1.94521,-6.0605 2.31883,-7.24518 1.04983,-3.32881 5.68696,-17.786386 7.00286,-21.833456 0.69155,-2.12682 1.35394,-3.81492 1.60426,-4.08841 0.9325,-1.0188 0.69491,-1.00303 15.0573,-0.99957 l 13.37072,0.003 4.05661,0.047 c 0,0 -0.23265,0.52482 -0.66732,1.42464 -0.6083,1.25929 -1.00432,2.09114 -2.48105,4.78803 -2.49132,4.54977 -9.07703,16.349206 -9.23519,16.546416 -0.0864,0.1077 -0.63734,1.07699 -1.22436,2.15398 -1.22837,2.2536 -2.37062,4.32075 -5.78884,10.47614 -1.34566,2.42321 -3.14766,5.68355 -4.00443,7.24518 -0.85676,1.56163 -1.85539,3.35072 -2.21914,3.97576 -0.36376,0.62505 -0.66138,1.17578 -0.66138,1.22386 0,0.0481 3.25727,0.0874 7.23837,0.0874 h 7.23836 l 0.6674,0.58599 c 0.79152,0.69494 1.01288,1.53677 0.63927,2.43095 -0.14772,0.35352 -2.38076,4.33801 -4.96231,8.85439 -2.58155,4.51639 -4.7903,8.38518 -4.90833,8.59733 -0.11803,0.21214 -0.69426,1.22283 -1.28053,2.24596 -0.58627,1.02314 -1.24904,2.18894 -1.47284,2.59068 -0.53415,0.95881 -9.30896,16.35124 -12.81168,22.47373 -1.50957,2.63862 -3.64333,6.38359 -4.7417,8.32218 -1.09836,1.93856 -3.95934,6.96125 -6.35773,11.16149 -2.3984,4.20024 -5.51096,9.66351 -6.9168,12.14057 -2.4211602,4.26605 -3.1342802,5.41801 -2.7880602,4.50376 z m 67.7620762,-1.03453 c 0.1934,-0.5107 0.67168,-1.97155 3.26957,-9.9866 1.18687,-3.66176 2.32504,-7.14238 2.52926,-7.73472 0.20422,-0.59235 1.74365,-5.30661 3.42095,-10.47615 1.6773,-5.16953 3.69816,-11.38178 4.4908,-13.805 5.65443,-17.28654 6.95523,-21.36579 6.95523,-21.81141 0,-0.27808 -0.2422,-0.7702 -0.53851,-1.09414 l -0.53848,-0.58873 -7.3104,-0.0507 -7.3104,-0.0507 -1.05424,0.0161 c -1.04225,0.0159 -0.59473,0.0457 0.48636,-4.32355 0.53754,-1.64875 1.28761,-3.98557 5.59407,-17.42808 0.93156,-2.90786 2.43153,-7.57806 3.33327,-10.37823 0.90173,-2.80016 1.94521,-6.0605 2.31883,-7.24518 1.04983,-3.32881 5.68696,-17.786391 7.00286,-21.833461 0.691554,-2.12682 1.353944,-3.81492 1.604264,-4.08841 0.9325,-1.0188 0.69491,-1.00303 15.05729,-0.99957 l 13.37072,0.003 4.05661,0.047 c 0,0 -0.23265,0.52482 -0.66732,1.42464 -0.6083,1.25929 -1.00432,2.09114 -2.48105,4.78803 -2.49132,4.54977 -9.07703,16.349211 -9.23519,16.546421 -0.0864,0.1077 -0.63734,1.07699 -1.22436,2.15398 -1.22837,2.2536 -2.37062,4.32075 -5.78884,10.47614 -1.34566,2.42321 -3.14766,5.68355 -4.00443,7.24518 -0.85676,1.56163 -1.85539,3.35072 -2.21914,3.97576 -0.36376,0.62505 -0.66138,1.17578 -0.66138,1.22386 0,0.0481 3.25727,0.0874 7.23837,0.0874 h 7.23836 l 0.6674,0.58599 c 0.79152,0.69494 1.01288,1.53677 0.63927,2.43095 -0.14772,0.35352 -2.38076,4.33801 -4.96231,8.85439 -2.58155,4.51639 -4.7903,8.38518 -4.90833,8.59733 -0.11803,0.21214 -0.69426,1.22283 -1.28053,2.24596 -0.58627,1.02314 -1.24904,2.18894 -1.47284,2.59068 -0.53415,0.95881 -9.30895,16.35124 -12.811674,22.47373 -1.50957,2.63862 -3.64333,6.38359 -4.7417,8.32218 -1.09836,1.93856 -3.95934,6.96125 -6.35773,11.16149 -2.3984,4.20024 -5.51096,9.66351 -6.9168,12.14057 -2.42116,4.26605 -3.13428,5.41801 -2.78806,4.50376 z m 69.558004,-1.71584 c 0.1934,-0.5107 0.67168,-1.97155 3.26957,-9.9866 1.18687,-3.66176 2.32504,-7.14238 2.52926,-7.73472 0.20422,-0.59235 1.74365,-5.30661 3.42095,-10.47615 1.6773,-5.16953 3.69816,-11.38178 4.4908,-13.805 5.65443,-17.28654 6.95523,-21.36579 6.95523,-21.81141 0,-0.27808 -0.2422,-0.7702 -0.53851,-1.09414 l -0.53848,-0.58873 -7.3104,-0.0507 -7.3104,-0.0507 -1.05424,0.0161 c -1.04225,0.0159 -0.59473,0.0457 0.48636,-4.32355 0.53754,-1.64875 1.28761,-3.98557 5.59407,-17.42808 0.93156,-2.90786 2.43153,-7.57806 3.33327,-10.37823 0.90173,-2.80016 1.94521,-6.0605 2.31883,-7.24518 1.04983,-3.32881 5.68696,-17.78639 7.00286,-21.83346 0.69155,-2.12682 1.35394,-3.81492 1.60426,-4.08841 0.9325,-1.0188 0.69491,-1.00303 15.0573,-0.99957 l 13.37072,0.003 4.05661,0.047 c 0,0 -0.23265,0.52482 -0.66732,1.42464 -0.6083,1.25929 -1.00432,2.09114 -2.48105,4.78803 -2.49132,4.54977 -9.07703,16.34921 -9.23519,16.54642 -0.0864,0.1077 -0.63734,1.07699 -1.22436,2.15398 -1.22837,2.2536 -2.37062,4.32075 -5.78884,10.47614 -1.34566,2.42321 -3.14766,5.68355 -4.00443,7.24518 -0.85676,1.56163 -1.85539,3.35072 -2.21914,3.97576 -0.36376,0.62505 -0.66138,1.17578 -0.66138,1.22386 0,0.0481 3.25727,0.0874 7.23837,0.0874 h 7.23836 l 0.6674,0.58599 c 0.79152,0.69494 1.01288,1.53677 0.63927,2.43095 -0.14772,0.35352 -2.38076,4.33801 -4.96231,8.85439 -2.58155,4.51639 -4.7903,8.38518 -4.90833,8.59733 -0.11803,0.21214 -0.69426,1.22283 -1.28053,2.24596 -0.58627,1.02314 -1.24904,2.18894 -1.47284,2.59068 -0.53415,0.95881 -9.30896,16.35124 -12.81168,22.47373 -1.50957,2.63862 -3.64333,6.38359 -4.7417,8.32218 -1.09836,1.93856 -3.95934,6.96125 -6.35773,11.16149 -2.3984,4.20024 -5.51096,9.66351 -6.9168,12.14057 -2.42116,4.26605 -3.13428,5.41801 -2.78806,4.50376 z" />
  </g>
</svg>
