<?xml version="1.0" encoding="UTF-8" standalone="no"?>
<!-- Created with Inkscape (http://www.inkscape.org/) -->

<svg
   width="210mm"
   height="297mm"
   viewBox="0 0 210 297"
   version="1.1"
   id="svg31260"
   inkscape:version="1.1 (c68e22c387, 2021-05-23)"
   sodipodi:docname="blixt.svg"
   xmlns:inkscape="http://www.inkscape.org/namespaces/inkscape"
   xmlns:sodipodi="http://sodipodi.sourceforge.net/DTD/sodipodi-0.dtd"
   xmlns="http://www.w3.org/2000/svg"
   xmlns:svg="http://www.w3.org/2000/svg">
  <sodipodi:namedview
     id="namedview31262"
     pagecolor="#ffffff"
     bordercolor="#666666"
     borderopacity="1.0"
     inkscape:pageshadow="2"
     inkscape:pageopacity="0.0"
     inkscape:pagecheckerboard="0"
     inkscape:document-units="mm"
     showgrid="false"
     inkscape:zoom="0.51150168"
     inkscape:cx="303.02931"
     inkscape:cy="536.65513"
     inkscape:window-width="1920"
     inkscape:window-height="1001"
     inkscape:window-x="-9"
     inkscape:window-y="-9"
     inkscape:window-maximized="1"
     inkscape:current-layer="layer1"
     inkscape:snap-bbox="true" />
  <defs
     id="defs31257" />
  <g
     inkscape:label="Lager 1"
     inkscape:groupmode="layer"
     id="layer1">
    <path
       style="fill:#000000;stroke-width:0.366946"
       d="m 53.716706,265.0387 c 0.362407,-0.95701 1.258672,-3.69457 6.126971,-18.71429 2.224127,-6.86191 4.356979,-13.38438 4.739676,-14.4944 0.382707,-1.11001 3.267498,-9.94426 6.410658,-19.63166 3.143161,-9.6874 6.930122,-21.32878 8.415482,-25.86975 10.59607,-32.39393 13.03368,-40.03819 13.03368,-40.87325 0,-0.52112 -0.45387,-1.44332 -1.00912,-2.05036 l -1.00909,-1.10324 -13.69924,-0.0951 -13.699254,-0.0951 -1.975584,0.0301 c -1.953107,0.0298 -1.114494,0.0857 0.911419,-8.10207 1.007305,-3.08966 2.412895,-7.46872 10.482932,-32.65917 1.745698,-5.449148 4.556557,-14.200832 6.246347,-19.448169 1.6898,-5.247338 3.64521,-11.357014 4.34535,-13.577043 1.96733,-6.23799 10.65702,-33.33061 13.12295,-40.914572 1.29591,-3.985549 2.537196,-7.148938 3.006286,-7.661434 1.747451,-1.909187 1.302211,-1.879633 28.216461,-1.873142 l 25.05592,0.0055 7.60185,0.08807 c 0,0 -0.43598,0.983474 -1.25051,2.669683 -1.13993,2.359833 -1.88204,3.918677 -4.64934,8.972475 -4.66858,8.526004 -17.00981,30.637443 -17.30619,31.007006 -0.16186,0.20182 -1.19434,2.01821 -2.29439,4.03642 -2.30188,4.223109 -4.44239,8.096833 -10.84792,19.631659 -2.5217,4.540955 -5.89853,10.650632 -7.50407,13.577032 -1.60552,2.926398 -3.47688,6.279048 -4.15853,7.450328 -0.68166,1.1713 -1.23938,2.20334 -1.23938,2.29344 0,0.0902 6.10391,0.16381 13.56426,0.16381 h 13.56425 l 1.25067,1.0981 c 1.48325,1.30228 1.89807,2.87982 1.19795,4.55545 -0.27681,0.66249 -4.4614,8.12917 -9.29907,16.5926 -4.83767,8.46344 -8.97673,15.71333 -9.19791,16.11087 -0.22118,0.39755 -1.30101,2.29152 -2.39964,4.20881 -1.09863,1.9173 -2.34063,4.10194 -2.76002,4.85476 -1.00095,1.79677 -17.444431,30.64124 -24.008307,42.11443 -2.82885,4.94461 -6.82739,11.96246 -8.88566,15.59525 -2.05826,3.63276 -7.41957,13.04496 -11.914012,20.91596 -4.494451,7.87101 -10.32719,18.10884 -12.96165,22.75071 -4.537111,7.99432 -5.873458,10.15302 -5.224667,8.43977 z"
       id="path31333"
       sodipodi:nodetypes="cssscsscccscsscsccccssssssssscsssssssssscc" />
  </g>
</svg>
