<?xml version="1.0" encoding="UTF-8" standalone="no"?>
<svg
   version="1.0"
   width="35.000000pt"
   height="50.000000pt"
   viewBox="0 0 187.000000 262.000000"
   preserveAspectRatio="xMidYMid meet"
   id="svg1215"
   sodipodi:docname="factory.svg"
   inkscape:version="1.1.1 (3bf5ae0d25, 2021-09-20)"
   xmlns:inkscape="http://www.inkscape.org/namespaces/inkscape"
   xmlns:sodipodi="http://sodipodi.sourceforge.net/DTD/sodipodi-0.dtd"
   xmlns="http://www.w3.org/2000/svg"
   xmlns:svg="http://www.w3.org/2000/svg">
  <defs
     id="defs1219" />
  <sodipodi:namedview
     id="namedview1217"
     pagecolor="#505050"
     bordercolor="#eeeeee"
     borderopacity="1"
     inkscape:pageshadow="0"
     inkscape:pageopacity="0"
     inkscape:pagecheckerboard="0"
     inkscape:document-units="pt"
     showgrid="false"
     inkscape:zoom="15.7875"
     inkscape:cx="26.698337"
     inkscape:cy="13.935075"
     inkscape:window-width="1920"
     inkscape:window-height="1046"
     inkscape:window-x="-11"
     inkscape:window-y="315"
     inkscape:window-maximized="1"
     inkscape:current-layer="g1213" />
  <g
     transform="matrix(0.1,0,0,-0.1,98.988806,286.11267)"
     fill="#001eb4"
     stroke="none"
     id="g1213">
    <path
       id="path1211"
       style="stroke-width:0.00998217"
       d="M 1.3632812 9.0585938 C 1.2569486 11.549976 1.125 14.471446 1.125 15.167969 L 1.125 15.746094 L 0.625 15.746094 L 0.12695312 15.746094 L 0.12695312 21.236328 L 0.12695312 26.726562 L 1.375 26.726562 L 2.6230469 26.726562 L 2.6230469 25.279297 L 2.6230469 23.832031 L 5.3671875 23.832031 L 8.1132812 23.832031 L 8.1132812 25.279297 L 8.1132812 26.726562 L 13.453125 26.726562 L 18.792969 26.726562 L 18.773438 21.236328 L 18.744141 15.736328 L 16.806641 14.847656 C 15.738548 14.348548 14.830944 13.949219 14.791016 13.949219 C 14.741105 13.949219 14.701172 14.348548 14.701172 14.847656 L 14.701172 15.736328 L 13.193359 14.837891 C 12.344875 14.318818 11.65538 13.959855 11.605469 14.009766 C 11.555558 14.059676 11.506292 14.468771 11.486328 14.917969 L 11.457031 15.726562 L 9.9589844 14.876953 C 9.1404461 14.407791 8.4116721 14.008462 8.3417969 13.978516 C 8.2519573 13.938588 8.2113706 14.179284 8.1914062 14.828125 L 8.1621094 15.726562 L 6.6152344 14.798828 L 5.0683594 13.869141 L 5.0371094 14.808594 L 5.0078125 15.755859 L 4.4394531 15.726562 L 3.8691406 15.697266 L 3.6699219 10.884766 C 3.6285911 9.8890697 3.6132439 9.8331448 3.5761719 9.0585938 L 1.3632812 9.0585938 z M 2.1230469 17.642578 L 3.5214844 17.642578 L 4.9179688 17.642578 L 4.9179688 18.492188 L 4.9179688 19.339844 L 3.5214844 19.339844 L 2.1230469 19.339844 L 2.1230469 18.492188 L 2.1230469 17.642578 z M 6.3164062 17.642578 L 7.7128906 17.642578 L 9.1113281 17.642578 L 9.1113281 18.492188 L 9.1113281 19.339844 L 7.7128906 19.339844 L 6.3164062 19.339844 L 6.3164062 18.492188 L 6.3164062 17.642578 z M 10.507812 17.642578 L 11.90625 17.642578 L 13.302734 17.642578 L 13.302734 18.492188 L 13.302734 19.339844 L 11.90625 19.339844 L 10.507812 19.339844 L 10.507812 18.492188 L 10.507812 17.642578 z M 14.701172 17.642578 L 16.097656 17.642578 L 17.496094 17.642578 L 17.496094 18.492188 L 17.496094 19.339844 L 16.097656 19.339844 L 14.701172 19.339844 L 14.701172 18.492188 L 14.701172 17.642578 z "
       transform="matrix(100.17857,0,0,-100.17857,-989.88806,2886.841)" />
  </g>
</svg>
