<?xml version="1.0" encoding="UTF-8" standalone="no"?>
<!-- Created with Inkscape (http://www.inkscape.org/) -->

<svg
   width="210mm"
   height="297mm"
   viewBox="0 0 210 297"
   version="1.1"
   id="svg5"
   inkscape:version="1.1 (c68e22c387, 2021-05-23)"
   sodipodi:docname="graf-hel-halvcrikel.svg"
   xmlns:inkscape="http://www.inkscape.org/namespaces/inkscape"
   xmlns:sodipodi="http://sodipodi.sourceforge.net/DTD/sodipodi-0.dtd"
   xmlns:xlink="http://www.w3.org/1999/xlink"
   xmlns="http://www.w3.org/2000/svg"
   xmlns:svg="http://www.w3.org/2000/svg">
  <sodipodi:namedview
     id="namedview7"
     pagecolor="#ffffff"
     bordercolor="#666666"
     borderopacity="1.0"
     inkscape:pageshadow="2"
     inkscape:pageopacity="0.0"
     inkscape:pagecheckerboard="0"
     inkscape:document-units="mm"
     showgrid="false"
     inkscape:snap-page="true"
     inkscape:snap-text-baseline="true"
     inkscape:snap-center="true"
     inkscape:snap-object-midpoints="true"
     inkscape:snap-midpoints="true"
     inkscape:snap-smooth-nodes="true"
     inkscape:snap-intersection-paths="true"
     inkscape:object-paths="true"
     inkscape:snap-bbox="true"
     inkscape:bbox-nodes="true"
     inkscape:bbox-paths="true"
     inkscape:snap-bbox-edge-midpoints="true"
     inkscape:snap-bbox-midpoints="true"
     inkscape:zoom="0.50033449"
     inkscape:cx="746.5006"
     inkscape:cy="366.75465"
     inkscape:window-width="1920"
     inkscape:window-height="1001"
     inkscape:window-x="-9"
     inkscape:window-y="-9"
     inkscape:window-maximized="1"
     inkscape:current-layer="layer1" />
  <defs
     id="defs2">
    <linearGradient
       inkscape:collect="always"
       id="linearGradient7590">
      <stop
         style="stop-color:#e10014;stop-opacity:1;"
         offset="0"
         id="stop7586" />
      <stop
         style="stop-color:#fb2b77;stop-opacity:1"
         offset="0.85063761"
         id="stop7820" />
      <stop
         style="stop-color:#e10014;stop-opacity:0;"
         offset="1"
         id="stop7588" />
    </linearGradient>
    <linearGradient
       inkscape:collect="always"
       xlink:href="#linearGradient7590"
       id="linearGradient7592"
       x1="394.89648"
       y1="893.43164"
       x2="394.18939"
       y2="-29.731527"
       gradientUnits="userSpaceOnUse" />
  </defs>
  <g
     inkscape:label="Lager 1"
     inkscape:groupmode="layer"
     id="layer1">
    <path
       id="path589"
       style="fill:url(#linearGradient7592);fill-rule:evenodd;stroke-width:1.40606;fill-opacity:1"
       d="M 394.89453 108.1543 L 394.89453 175.60156 A 325.19061 325.19061 0 0 1 394.89648 175.60156 A 325.19061 325.19061 0 0 1 412.26172 176.07422 A 325.19061 325.19061 0 0 1 413.0332 176.12305 A 325.19061 325.19061 0 0 1 429.52148 177.46484 A 325.19061 325.19061 0 0 1 430.97852 177.63477 A 325.19061 325.19061 0 0 1 446.83789 179.79492 A 325.19061 325.19061 0 0 1 448.46875 180.07227 A 325.19061 325.19061 0 0 1 463.91211 183.0332 A 325.19061 325.19061 0 0 1 465.84375 183.46289 A 325.19061 325.19061 0 0 1 480.92969 187.21484 A 325.19061 325.19061 0 0 1 482.80664 187.73633 A 325.19061 325.19061 0 0 1 497.7168 192.3125 A 325.19061 325.19061 0 0 1 499.5293 192.91797 A 325.19061 325.19061 0 0 1 514.36133 198.36914 A 325.19061 325.19061 0 0 1 515.83203 198.94531 A 325.19061 325.19061 0 0 1 530.7207 205.34961 A 325.19061 325.19061 0 0 1 531.81445 205.84375 A 325.19061 325.19061 0 0 1 546.80078 213.27539 A 325.19061 325.19061 0 0 1 547.38867 213.57812 A 325.19061 325.19061 0 0 1 562.47852 222.11133 A 325.19061 325.19061 0 0 1 562.72461 222.26367 A 325.19061 325.19061 0 0 1 577.09375 231.44727 A 325.19061 325.19061 0 0 1 577.97461 232.05859 A 325.19061 325.19061 0 0 1 591.18945 241.54883 A 325.19061 325.19061 0 0 1 592.48633 242.54688 A 325.19061 325.19061 0 0 1 604.81445 252.45898 A 325.19061 325.19061 0 0 1 606.1875 253.63477 A 325.19061 325.19061 0 0 1 617.81641 264.06445 A 325.19061 325.19061 0 0 1 619.26758 265.44336 A 325.19061 325.19061 0 0 1 630.25586 276.43359 A 325.19061 325.19061 0 0 1 631.60156 277.84961 A 325.19061 325.19061 0 0 1 642.03711 289.48242 A 325.19061 325.19061 0 0 1 643.23633 290.88281 A 325.19061 325.19061 0 0 1 653.18359 303.25781 A 325.19061 325.19061 0 0 1 654.11328 304.46484 A 325.19061 325.19061 0 0 1 663.63477 317.7168 A 325.19061 325.19061 0 0 1 664.24023 318.5957 A 325.19061 325.19061 0 0 1 673.42578 332.9668 A 325.19061 325.19061 0 0 1 673.57617 333.21094 A 325.19061 325.19061 0 0 1 682.13086 348.33984 A 325.19061 325.19061 0 0 1 682.36523 348.79492 A 325.19061 325.19061 0 0 1 689.83398 363.84961 A 325.19061 325.19061 0 0 1 690.36719 365.0293 A 325.19061 325.19061 0 0 1 696.72266 379.80469 A 325.19061 325.19061 0 0 1 697.34961 381.4082 A 325.19061 325.19061 0 0 1 702.76953 396.1582 A 325.19061 325.19061 0 0 1 703.38281 397.99609 A 325.19061 325.19061 0 0 1 707.94531 412.86133 A 325.19061 325.19061 0 0 1 708.47656 414.7793 A 325.19061 325.19061 0 0 1 712.22656 429.84961 A 325.19061 325.19061 0 0 1 712.65625 431.77734 A 325.19061 325.19061 0 0 1 715.60156 447.13477 A 325.19061 325.19061 0 0 1 715.90234 448.9082 A 325.19061 325.19061 0 0 1 718.06055 464.75977 A 325.19061 325.19061 0 0 1 718.2207 466.125 A 325.19061 325.19061 0 0 1 719.55664 482.54492 A 325.19061 325.19061 0 0 1 719.61719 483.47852 A 325.19061 325.19061 0 0 1 720.08594 500.79297 A 325.19061 325.19061 0 0 1 716.08984 551.5625 A 325.19061 325.19061 0 0 1 716.05078 551.79297 A 325.19061 325.19061 0 0 1 704.2168 601.08594 A 325.19061 325.19061 0 0 1 704.07617 601.50977 A 325.19061 325.19061 0 0 1 684.74023 648.1875 A 325.19061 325.19061 0 0 1 684.49023 648.67578 A 325.19061 325.19061 0 0 1 658.14844 691.66016 A 325.19061 325.19061 0 0 1 657.75586 692.19727 A 325.19061 325.19061 0 0 1 625.0625 730.47656 A 325.19061 325.19061 0 0 1 624.58008 730.96094 A 325.19061 325.19061 0 0 1 586.28711 763.66211 A 325.19061 325.19061 0 0 1 585.77344 764.03906 A 325.19061 325.19061 0 0 1 542.7793 790.38672 A 325.19061 325.19061 0 0 1 542.29102 790.63672 A 325.19061 325.19061 0 0 1 495.60938 809.97461 A 325.19061 325.19061 0 0 1 495.19141 810.11523 A 325.19061 325.19061 0 0 1 445.89648 821.94922 A 325.19061 325.19061 0 0 1 445.66602 821.98828 A 325.19061 325.19061 0 0 1 394.89648 825.98438 A 325.19061 325.19061 0 0 1 394.89453 825.98438 L 394.89453 893.43164 A 392.63908 392.63908 0 0 0 394.89648 893.43164 A 392.63908 392.63908 0 0 0 787.53516 500.79297 A 392.63908 392.63908 0 0 0 394.89648 108.1543 A 392.63908 392.63908 0 0 0 394.89453 108.1543 z "
       transform="scale(0.26458333)" />
    <path
       id="path589-7-5-0"
       style="fill:#00ff00;fill-rule:evenodd;stroke-width:1.10285"
       d="M 394.89648 192.82617 L 394.89648 259.57422 A 241.2178 241.2178 0 0 1 565.46289 330.22656 A 241.2178 241.2178 0 0 1 565.46289 671.35938 A 241.2178 241.2178 0 0 1 394.89648 742.01172 L 394.89648 808.75977 A 307.96641 307.96641 0 0 0 702.86133 500.79297 A 307.96641 307.96641 0 0 0 394.89648 192.82617 z "
       transform="scale(0.26458333)" />
    <path
       id="path589-7-5-0-0-4"
       style="fill:#0000ff;fill-rule:evenodd;stroke-width:0.801252"
       d="M 394.89453 277.84961 L 394.89453 343.42578 A 157.6063 157.6063 0 0 1 506.19922 389.20703 A 157.6063 157.6063 0 0 1 506.19922 612.0957 A 157.6063 157.6063 0 0 1 394.89453 657.6582 L 394.89453 724.37305 A 223.74803 223.74803 0 0 0 553.50977 659.4082 A 223.74803 223.74803 0 0 0 553.50977 342.98047 A 223.74803 223.74803 0 0 0 394.89453 277.84961 z "
       transform="scale(0.26458333)" />
  </g>
</svg>
